<svg version="1" xmlns="http://www.w3.org/2000/svg" width="452" height="452" viewBox="0 0 339.000000 339.000000"><path d="M33.2 34.2C43.6 65.9 45.9 73.5 45.4 74c-.3.2-10.4.5-22.4.5-12 0-22.1.3-22.4.6-.3.3 2.3 9.5 5.8 20.5 6.9 21.4 11 34.1 32.1 100.9 7.5 23.6 15.3 48.4 17.5 55 2.1 6.6 6.6 20.8 10 31.5 3.4 10.7 7.2 22.6 8.4 26.5l2.3 7h185.7l4.9-15c2.6-8.3 5-15.7 5.2-16.5.2-.8 2.1-7.1 4.3-14 2.3-6.9 7.3-22.6 11.2-35 3.9-12.4 10-31.5 13.5-42.5s9.6-30.1 13.5-42.5c3.9-12.4 7.5-23.6 8-25 .6-1.4 1.2-3.4 1.5-4.5.2-1.1 1.5-5.4 2.8-9.5 3.6-11.1 11.7-36.9 11.7-37.2 0-.2-10.3-.3-23-.3-12.6 0-23-.1-23-.2 0-.3 9.2-29 13.5-42.1l3.4-10.2H29.2l4 12.2z"/></svg>